<svg xmlns="http://www.w3.org/2000/svg" xmlns:xlink="http://www.w3.org/1999/xlink" contentStyleType="text/css" data-diagram-type="STATE" height="2789px" preserveAspectRatio="none" style="width:1092px;height:2789px;background:#FFFFFF;" version="1.1" viewBox="0 0 1092 2789" width="1092px" zoomAndPan="magnify"><?plantuml 1.2026.3?><defs/><g><g class="title" data-source-line="19"><text fill="#000000" font-family="sans-serif" font-size="14" font-weight="700" lengthAdjust="spacing" textLength="316.7637" x="384.1628" y="23.5352">MAGGIE &#8212; REXUS Experiment State Machine</text></g><!--cluster Dock1--><g class="cluster" data-qualified-name="Dock1" data-source-line="98" id="ent0009"><path d="M294.62,1077.4883 L465.62,1077.4883 A6,6 0 0 1 471.62,1083.4883 L471.62,1093.4883 L288.62,1093.4883 L288.62,1083.4883 A6,6 0 0 1 294.62,1077.4883" fill="#FFFFFF"/><rect fill="none" height="379" rx="6" ry="6" style="stroke:#2563EB;stroke-width:1.5;" width="183" x="288.62" y="1077.4883"/><line style="stroke:#2563EB;stroke-width:1.5;" x1="288.62" x2="471.62" y1="1093.4883" y2="1093.4883"/><text fill="#000000" font-family="'Helvetica'" font-size="11" lengthAdjust="spacing" textLength="83.7622" x="338.2389" y="1089.9585">Docking Target 1</text></g><!--cluster Dock2--><g class="cluster" data-qualified-name="Dock2" data-source-line="118" id="ent0013"><path d="M116.62,1515.4883 L287.62,1515.4883 A6,6 0 0 1 293.62,1521.4883 L293.62,1531.4883 L110.62,1531.4883 L110.62,1521.4883 A6,6 0 0 1 116.62,1515.4883" fill="#FFFFFF"/><rect fill="none" height="379" rx="6" ry="6" style="stroke:#2563EB;stroke-width:1.5;" width="183" x="110.62" y="1515.4883"/><line style="stroke:#2563EB;stroke-width:1.5;" x1="110.62" x2="293.62" y1="1531.4883" y2="1531.4883"/><text fill="#000000" font-family="'Helvetica'" font-size="11" lengthAdjust="spacing" textLength="83.7622" x="160.2389" y="1527.9585">Docking Target 2</text></g><g class="entity" data-qualified-name="Dock1.APPROACH_T1" id="ent0010"><rect fill="#FFFFFF" height="53" rx="6" ry="6" style="stroke:#16A34A;stroke-width:1.5;" width="100.6899" x="355.28" y="1107.4883"/><line style="stroke:#16A34A;stroke-width:1.5;" x1="355.28" x2="455.9699" y1="1128.4883" y2="1128.4883"/><text fill="#000000" font-family="'Helvetica'" font-size="11" lengthAdjust="spacing" textLength="80.6899" x="365.28" y="1120.9585">APPROACH_T1</text><text fill="#000000" font-family="'Helvetica'" font-size="11" lengthAdjust="spacing" textLength="73.9922" x="360.28" y="1141.9585">S7 &#183; Open-loop</text><text fill="#000000" font-family="'Helvetica'" font-size="11" lengthAdjust="spacing" textLength="67.853" x="360.28" y="1152.9585">Trajektorie T1</text></g><g class="entity" data-qualified-name="Dock1.DOCK_T1" id="ent0011"><rect fill="#FFFFFF" height="53" rx="6" ry="6" style="stroke:#16A34A;stroke-width:1.5;" width="112.6191" x="304.31" y="1247.4883"/><line style="stroke:#16A34A;stroke-width:1.5;" x1="304.31" x2="416.9291" y1="1268.4883" y2="1268.4883"/><text fill="#000000" font-family="'Helvetica'" font-size="11" lengthAdjust="spacing" textLength="50.7354" x="335.2519" y="1260.9585">DOCK_T1</text><text fill="#000000" font-family="'Helvetica'" font-size="11" lengthAdjust="spacing" textLength="54.4199" x="309.31" y="1281.9585">S8 &#183; Halten</text><text fill="#000000" font-family="'Helvetica'" font-size="11" lengthAdjust="spacing" textLength="92.6191" x="309.31" y="1292.9585">Wegezelle + Cams</text></g><g class="entity" data-qualified-name="Dock1.RETRACT_T1" id="ent0012"><rect fill="#FFFFFF" height="53" rx="6" ry="6" style="stroke:#16A34A;stroke-width:1.5;" width="109.2461" x="305" y="1387.4883"/><line style="stroke:#16A34A;stroke-width:1.5;" x1="305" x2="414.2461" y1="1408.4883" y2="1408.4883"/><text fill="#000000" font-family="'Helvetica'" font-size="11" lengthAdjust="spacing" textLength="70.8984" x="324.1738" y="1400.9585">RETRACT_T1</text><text fill="#000000" font-family="'Helvetica'" font-size="11" lengthAdjust="spacing" textLength="89.2461" x="310" y="1421.9585">S9 &#183; Reverse-Traj.</text><text fill="#000000" font-family="'Helvetica'" font-size="11" lengthAdjust="spacing" textLength="29.9492" x="310" y="1432.9585">F &#8594; 0</text></g><g class="entity" data-qualified-name="Dock2.APPROACH_T2" id="ent0014"><rect fill="#FFFFFF" height="53" rx="6" ry="6" style="stroke:#16A34A;stroke-width:1.5;" width="100.6899" x="177.28" y="1545.4883"/><line style="stroke:#16A34A;stroke-width:1.5;" x1="177.28" x2="277.9699" y1="1566.4883" y2="1566.4883"/><text fill="#000000" font-family="'Helvetica'" font-size="11" lengthAdjust="spacing" textLength="80.6899" x="187.28" y="1558.9585">APPROACH_T2</text><text fill="#000000" font-family="'Helvetica'" font-size="11" lengthAdjust="spacing" textLength="80.1099" x="182.28" y="1579.9585">S10 &#183; Open-loop</text><text fill="#000000" font-family="'Helvetica'" font-size="11" lengthAdjust="spacing" textLength="67.853" x="182.28" y="1590.9585">Trajektorie T2</text></g><g class="entity" data-qualified-name="Dock2.DOCK_T2" id="ent0015"><rect fill="#FFFFFF" height="53" rx="6" ry="6" style="stroke:#16A34A;stroke-width:1.5;" width="112.6191" x="128.31" y="1685.4883"/><line style="stroke:#16A34A;stroke-width:1.5;" x1="128.31" x2="240.9291" y1="1706.4883" y2="1706.4883"/><text fill="#000000" font-family="'Helvetica'" font-size="11" lengthAdjust="spacing" textLength="50.7354" x="159.2519" y="1698.9585">DOCK_T2</text><text fill="#000000" font-family="'Helvetica'" font-size="11" lengthAdjust="spacing" textLength="60.5376" x="133.31" y="1719.9585">S11 &#183; Halten</text><text fill="#000000" font-family="'Helvetica'" font-size="11" lengthAdjust="spacing" textLength="92.6191" x="133.31" y="1730.9585">Wegezelle + Cams</text></g><g class="entity" data-qualified-name="Dock2.RETRACT_T2" id="ent0016"><rect fill="#FFFFFF" height="53" rx="6" ry="6" style="stroke:#16A34A;stroke-width:1.5;" width="115.3638" x="126.94" y="1825.4883"/><line style="stroke:#16A34A;stroke-width:1.5;" x1="126.94" x2="242.3038" y1="1846.4883" y2="1846.4883"/><text fill="#000000" font-family="'Helvetica'" font-size="11" lengthAdjust="spacing" textLength="70.8984" x="149.1727" y="1838.9585">RETRACT_T2</text><text fill="#000000" font-family="'Helvetica'" font-size="11" lengthAdjust="spacing" textLength="95.3638" x="131.94" y="1859.9585">S12 &#183; Reverse-Traj.</text><text fill="#000000" font-family="'Helvetica'" font-size="11" lengthAdjust="spacing" textLength="29.9492" x="131.94" y="1870.9585">F &#8594; 0</text></g><g class="entity" data-qualified-name="PRE_LAUNCH" id="ent0002"><rect fill="#FFFFFF" height="53" rx="6" ry="6" style="stroke:#6B7280;stroke-width:1.5;" width="120.2729" x="847.49" y="124.4883"/><line style="stroke:#6B7280;stroke-width:1.5;" x1="847.49" x2="967.7629" y1="145.4883" y2="145.4883"/><text fill="#000000" font-family="'Helvetica'" font-size="11" lengthAdjust="spacing" textLength="73.9653" x="870.6438" y="137.9585">PRE_LAUNCH</text><text fill="#000000" font-family="'Helvetica'" font-size="11" lengthAdjust="spacing" textLength="100.2729" x="852.49" y="158.9585">S0 &#183; Idle, Selbsttests</text><text fill="#000000" font-family="'Helvetica'" font-size="11" lengthAdjust="spacing" textLength="51.9653" x="852.49" y="169.9585">SODS aus</text></g><g class="entity" data-qualified-name="ARMED" id="ent0003"><rect fill="#FFFFFF" height="53" rx="6" ry="6" style="stroke:#6B7280;stroke-width:1.5;" width="114.1714" x="850.54" y="264.4883"/><line style="stroke:#6B7280;stroke-width:1.5;" x1="850.54" x2="964.7114" y1="285.4883" y2="285.4883"/><text fill="#000000" font-family="'Helvetica'" font-size="11" lengthAdjust="spacing" textLength="39.7246" x="887.7634" y="277.9585">ARMED</text><text fill="#000000" font-family="'Helvetica'" font-size="11" lengthAdjust="spacing" textLength="94.1714" x="855.54" y="298.9585">S1 &#183; Datalogger ein</text><text fill="#000000" font-family="'Helvetica'" font-size="11" lengthAdjust="spacing" textLength="61.7568" x="855.54" y="309.9585">Aktoren safe</text></g><g class="entity" data-qualified-name="ASCENT" id="ent0004"><rect fill="#FFFFFF" height="53" rx="6" ry="6" style="stroke:#2563EB;stroke-width:1.5;" width="120.2783" x="847.49" y="404.4883"/><line style="stroke:#2563EB;stroke-width:1.5;" x1="847.49" x2="967.7683" y1="425.4883" y2="425.4883"/><text fill="#000000" font-family="'Helvetica'" font-size="11" lengthAdjust="spacing" textLength="44.6177" x="885.3203" y="417.9585">ASCENT</text><text fill="#000000" font-family="'Helvetica'" font-size="11" lengthAdjust="spacing" textLength="100.2783" x="852.49" y="438.9585">S2 &#183; Boost, Vibration</text><text fill="#000000" font-family="'Helvetica'" font-size="11" lengthAdjust="spacing" textLength="83.1768" x="852.49" y="449.9585">Sensoren loggen</text></g><g class="entity" data-qualified-name="MG_VERIFY" id="ent0005"><rect fill="#FFFFFF" height="53" rx="6" ry="6" style="stroke:#2563EB;stroke-width:1.5;" width="87.853" x="863.7" y="544.4883"/><line style="stroke:#2563EB;stroke-width:1.5;" x1="863.7" x2="951.553" y1="565.4883" y2="565.4883"/><text fill="#000000" font-family="'Helvetica'" font-size="11" lengthAdjust="spacing" textLength="63.5669" x="875.8431" y="557.9585">MG_VERIFY</text><text fill="#000000" font-family="'Helvetica'" font-size="11" lengthAdjust="spacing" textLength="67.853" x="868.7" y="578.9585">S3 &#183; IMU pr&#252;ft</text><text fill="#000000" font-family="'Helvetica'" font-size="11" lengthAdjust="spacing" textLength="59.2861" x="868.7" y="589.9585">Microgravity</text></g><g class="entity" data-qualified-name="WAIT_FFU" id="ent0006"><rect fill="#FFFFFF" height="53" rx="6" ry="6" style="stroke:#16A34A;stroke-width:1.5;" width="134.9146" x="770.17" y="684.4883"/><line style="stroke:#16A34A;stroke-width:1.5;" x1="770.17" x2="905.0846" y1="705.4883" y2="705.4883"/><text fill="#000000" font-family="'Helvetica'" font-size="11" lengthAdjust="spacing" textLength="54.9946" x="810.13" y="697.9585">WAIT_FFU</text><text fill="#000000" font-family="'Helvetica'" font-size="11" lengthAdjust="spacing" textLength="92.3076" x="775.17" y="718.9585">S4 &#183; Timer ab SOE</text><text fill="#000000" font-family="'Helvetica'" font-size="11" lengthAdjust="spacing" textLength="114.9146" x="775.17" y="729.9585">(FFU-Abwurf abwarten)</text></g><g class="entity" data-qualified-name="HDRM_OPEN" id="ent0007"><rect fill="#FFFFFF" height="53" rx="6" ry="6" style="stroke:#16A34A;stroke-width:1.5;" width="90.2861" x="777.48" y="811.4883"/><line style="stroke:#16A34A;stroke-width:1.5;" x1="777.48" x2="867.7661" y1="832.4883" y2="832.4883"/><text fill="#000000" font-family="'Helvetica'" font-size="11" lengthAdjust="spacing" textLength="70.2861" x="787.48" y="824.9585">HDRM_OPEN</text><text fill="#000000" font-family="'Helvetica'" font-size="11" lengthAdjust="spacing" textLength="63.5884" x="782.48" y="845.9585">S5 &#183; Aktuator</text><text fill="#000000" font-family="'Helvetica'" font-size="11" lengthAdjust="spacing" textLength="37.9092" x="782.48" y="856.9585">l&#246;st aus</text></g><g class="entity" data-qualified-name="ARM_DEPLOY" id="ent0008"><rect fill="#FFFFFF" height="53" rx="6" ry="6" style="stroke:#16A34A;stroke-width:1.5;" width="130.0591" x="629.59" y="951.4883"/><line style="stroke:#16A34A;stroke-width:1.5;" x1="629.59" x2="759.6491" y1="972.4883" y2="972.4883"/><text fill="#000000" font-family="'Helvetica'" font-size="11" lengthAdjust="spacing" textLength="75.1899" x="657.0246" y="964.9585">ARM_DEPLOY</text><text fill="#000000" font-family="'Helvetica'" font-size="11" lengthAdjust="spacing" textLength="45.853" x="634.59" y="985.9585">S6 &#183; Start</text><text fill="#000000" font-family="'Helvetica'" font-size="11" lengthAdjust="spacing" textLength="110.0591" x="634.59" y="996.9585">home &#8594; pre-approach</text></g><g class="entity" data-qualified-name="ARM_STOW" id="ent0017"><rect fill="#FFFFFF" height="53" rx="6" ry="6" style="stroke:#0891B2;stroke-width:1.5;" width="121.4814" x="103.88" y="1967.4883"/><line style="stroke:#0891B2;stroke-width:1.5;" x1="103.88" x2="225.3614" y1="1988.4883" y2="1988.4883"/><text fill="#000000" font-family="'Helvetica'" font-size="11" lengthAdjust="spacing" textLength="63.5562" x="132.8426" y="1980.9585">ARM_STOW</text><text fill="#000000" font-family="'Helvetica'" font-size="11" lengthAdjust="spacing" textLength="60.5215" x="108.88" y="2001.9585">S13 &#183; Arm in</text><text fill="#000000" font-family="'Helvetica'" font-size="11" lengthAdjust="spacing" textLength="101.4814" x="108.88" y="2012.9585">HDRM-Konfiguration</text></g><g class="entity" data-qualified-name="HDRM_CLOSE" id="ent0018"><rect fill="#FFFFFF" height="53" rx="6" ry="6" style="stroke:#0891B2;stroke-width:1.5;" width="116.5991" x="106.32" y="2107.4883"/><line style="stroke:#0891B2;stroke-width:1.5;" x1="106.32" x2="222.9191" y1="2128.4883" y2="2128.4883"/><text fill="#000000" font-family="'Helvetica'" font-size="11" lengthAdjust="spacing" textLength="76.4038" x="126.4177" y="2120.9585">HDRM_CLOSE</text><text fill="#000000" font-family="'Helvetica'" font-size="11" lengthAdjust="spacing" textLength="96.5991" x="111.32" y="2141.9585">S14 &#183; Mechanismus</text><text fill="#000000" font-family="'Helvetica'" font-size="11" lengthAdjust="spacing" textLength="79.4546" x="111.32" y="2152.9585">schlie&#223;t um Arm</text></g><g class="entity" data-qualified-name="NET_DEPLOY" id="ent0019"><rect fill="#FFFFFF" height="53" rx="6" ry="6" style="stroke:#0891B2;stroke-width:1.5;" width="114.1821" x="110.53" y="2279.5783"/><line style="stroke:#0891B2;stroke-width:1.5;" x1="110.53" x2="224.7121" y1="2300.5783" y2="2300.5783"/><text fill="#000000" font-family="'Helvetica'" font-size="11" lengthAdjust="spacing" textLength="72.7461" x="131.248" y="2293.0485">NET_DEPLOY</text><text fill="#000000" font-family="'Helvetica'" font-size="11" lengthAdjust="spacing" textLength="94.1821" x="115.53" y="2314.0485">S15 &#183; Redundantes</text><text fill="#000000" font-family="'Helvetica'" font-size="11" lengthAdjust="spacing" textLength="75.8237" x="115.53" y="2325.0485">Sicherungsnetz</text></g><g class="entity" data-qualified-name="SAFE" id="ent0020"><rect fill="#FFFFFF" height="53" rx="6" ry="6" style="stroke:#0891B2;stroke-width:1.5;" width="133.0991" x="204.07" y="2451.6583"/><line style="stroke:#0891B2;stroke-width:1.5;" x1="204.07" x2="337.1691" y1="2472.6583" y2="2472.6583"/><text fill="#000000" font-family="'Helvetica'" font-size="11" lengthAdjust="spacing" textLength="28.73" x="256.2546" y="2465.1285">SAFE</text><text fill="#000000" font-family="'Helvetica'" font-size="11" lengthAdjust="spacing" textLength="113.0991" x="209.07" y="2486.1285">S16 &#183; Telemetrie weiter</text><text fill="#000000" font-family="'Helvetica'" font-size="11" lengthAdjust="spacing" textLength="58.7007" x="209.07" y="2497.1285">Aktoren aus</text></g><g class="entity" data-qualified-name="ABORT" id="ent0021"><rect fill="#FEE2E2" height="53" rx="6" ry="6" style="stroke:#DC2626;stroke-width:1.5;" width="227.2651" x="391.99" y="2279.5783"/><line style="stroke:#DC2626;stroke-width:1.5;" x1="391.99" x2="619.2551" y1="2300.5783" y2="2300.5783"/><text fill="#000000" font-family="'Helvetica'" font-size="11" lengthAdjust="spacing" textLength="37.8931" x="486.676" y="2293.0485">ABORT</text><text fill="#000000" font-family="'Helvetica'" font-size="11" lengthAdjust="spacing" textLength="201.1206" x="396.99" y="2314.0485">S_E &#183; Arm stop, HDRM zu wenn m&#246;glich,</text><text fill="#000000" font-family="'Helvetica'" font-size="11" lengthAdjust="spacing" textLength="207.2651" x="396.99" y="2325.0485">Netz immer ausl&#246;sen, Daten weiter loggen</text></g><g class="start_entity" data-qualified-name=".start." data-source-line="48" id="ent0002"><ellipse cx="907.62" cy="53.4883" fill="#222222" rx="10" ry="10" style="stroke:#222222;stroke-width:1;"/></g><g class="end_entity" data-qualified-name=".end." data-source-line="159" id="ent0020"><ellipse cx="128.62" cy="2670.1783" fill="none" rx="11" ry="11" style="stroke:#222222;stroke-width:1;"/><ellipse cx="128.62" cy="2670.1783" fill="#222222" rx="6" ry="6" style="stroke:#222222;stroke-width:1;"/></g><g class="entity" data-qualified-name="GMN2" data-source-line="179" id="ent0003"><path d="M654.06,2253.4883 L654.06,2302.0783 L619.51,2306.0783 L654.06,2310.0783 L654.06,2358.6621 A6,6 0 0 0 660.06,2364.6621 L943.1835,2364.6621 A6,6 0 0 0 949.1835,2358.6621 L949.1835,2257.4883 L939.1835,2247.4883 L660.06,2247.4883 A6,6 0 0 0 654.06,2253.4883" fill="#FEFFDD" style="stroke:#181818;stroke-width:0.5;"/><path d="M939.1835,2247.4883 L939.1835,2254.4883 A3,3 0 0 0 942.1835,2257.4883 L949.1835,2257.4883 L939.1835,2247.4883" fill="#FEFFDD" style="stroke:#181818;stroke-width:0.5;"/><text fill="#000000" font-family="sans-serif" font-size="13" font-weight="700" lengthAdjust="spacing" textLength="104.3936" x="660.06" y="2265.0566">Globale Trigger</text><text fill="#000000" font-family="sans-serif" font-size="13" lengthAdjust="spacing" textLength="165.6167" x="768.5668" y="2265.0566">(gelten in jedem Zustand):</text><text fill="#000000" font-family="sans-serif" font-size="13" lengthAdjust="spacing" textLength="126.5913" x="660.06" y="2280.3672">&#8226; Watchdog timeout</text><text fill="#000000" font-family="sans-serif" font-size="13" lengthAdjust="spacing" textLength="116.4541" x="660.06" y="2295.6777">&#8226; Power-Brownout</text><text fill="#000000" font-family="sans-serif" font-size="13" lengthAdjust="spacing" textLength="163.3696" x="660.06" y="2310.9883">&#8226; Operator-Abort (Uplink)</text><text fill="#000000" font-family="sans-serif" font-size="13" lengthAdjust="spacing" textLength="108.6338" x="660.06" y="2326.2988">&#8226; IMU-Plausi-Fail</text><text fill="#000000" font-family="sans-serif" font-size="13" lengthAdjust="spacing" textLength="262.0884" x="660.06" y="2341.6094">&#8226; Force-&#220;berschreitung (F_load &gt; F_max)</text><text fill="#000000" font-family="sans-serif" font-size="13" lengthAdjust="spacing" textLength="214.1445" x="660.06" y="2356.9199">&#8226; Harter Cutoff:  t &gt; T_HARD_CUT</text></g><g class="entity" data-qualified-name="GMN5" data-source-line="192" id="ent0006"><path d="M175.09,2571.6583 L175.09,2768.6954 A6,6 0 0 0 181.09,2774.6954 L644.1632,2774.6954 A6,6 0 0 0 650.1632,2768.6954 L650.1632,2575.6583 L640.1632,2565.6583 L339.12,2565.6583 L289.78,2504.7883 L331.12,2565.6583 L181.09,2565.6583 A6,6 0 0 0 175.09,2571.6583" fill="#FEFFDD" style="stroke:#181818;stroke-width:0.5;"/><path d="M640.1632,2565.6583 L640.1632,2572.6583 A3,3 0 0 0 643.1632,2575.6583 L650.1632,2575.6583 L640.1632,2565.6583" fill="#FEFFDD" style="stroke:#181818;stroke-width:0.5;"/><text fill="#000000" font-family="sans-serif" font-size="13" font-weight="700" lengthAdjust="spacing" textLength="317.2749" x="181.09" y="2583.2266">KONFIG &#8212; Konstanten (im Code als Parameter):</text><text fill="#000000" font-family="sans-serif" font-size="13" lengthAdjust="spacing" textLength="362.1592" x="181.09" y="2598.5372">T_FFU       = 10 s        (Wartezeit ab SOE bis HDRM_OPEN)</text><text fill="#000000" font-family="sans-serif" font-size="13" lengthAdjust="spacing" textLength="303.1514" x="181.09" y="2613.8477">IMU_g_thr   = 0.05 g      (Microgravity-Schwelle)</text><text fill="#000000" font-family="sans-serif" font-size="13" lengthAdjust="spacing" textLength="326.8916" x="181.09" y="2629.1583">IMU_t_thr   = 500 ms      (Halte-Zeit unter Schwelle)</text><text fill="#000000" font-family="sans-serif" font-size="13" lengthAdjust="spacing" textLength="347.5024" x="181.09" y="2644.4688">F_thresh    = 0.5 N       (Kontakt-Erkennung Wegezelle)</text><text fill="#000000" font-family="sans-serif" font-size="13" lengthAdjust="spacing" textLength="285.2065" x="181.09" y="2659.7794">F_max       = 5.0 N       (Force-Limit &#8594; Abort)</text><text fill="#000000" font-family="sans-serif" font-size="13" lengthAdjust="spacing" textLength="268.1948" x="181.09" y="2675.0899">t_hold      = 3 s         (Halte-Zeit im DOCK)</text><text fill="#000000" font-family="sans-serif" font-size="13" lengthAdjust="spacing" textLength="454.0732" x="181.09" y="2690.4005">T_HARD_CUT  = SOE + 100 s (Erzwungener &#220;bergang nach ARM_STOW)</text><text fill="#000000" font-family="sans-serif" font-size="13" lengthAdjust="spacing" textLength="257.626" x="181.09" y="2705.711">&#949; (pose)    = 1&#176;  / 2 mm  (Pose-Toleranz)</text><text fill="#000000" font-family="sans-serif" font-size="13" lengthAdjust="spacing" textLength="4.1133" x="181.09" y="2721.0216">&#160;</text><text fill="#000000" font-family="sans-serif" font-size="13" font-weight="700" lengthAdjust="spacing" textLength="104.9585" x="181.09" y="2736.3321">Phasen-Farben:</text><text fill="#000000" font-family="sans-serif" font-size="13" lengthAdjust="spacing" textLength="335.9243" x="181.09" y="2751.6427">Pre-Flight = grau &#183; Flight = blau &#183; Experiment = gr&#252;n</text><text fill="#000000" font-family="sans-serif" font-size="13" lengthAdjust="spacing" textLength="249.6089" x="181.09" y="2766.9532">Safing = cyan &#183; Abort = rot (gestrichelt)</text></g><!--link *start* to PRE_LAUNCH--><g class="link" data-entity-1="ent0002" data-entity-2="ent0002" data-link-type="dependency" data-source-line="48" id="lnk3"><path d="M907.62,63.6483 C907.62,77.4683 907.62,98.1583 907.62,118.2283" fill="none" id="*start*-to-PRE_LAUNCH" style="stroke:#111827;stroke-width:1;"/><polygon fill="#111827" points="907.62,124.2283,911.62,115.2283,907.62,119.2283,903.62,115.2283,907.62,124.2283" style="stroke:#111827;stroke-width:1;"/></g><!--link PRE_LAUNCH to ARMED--><g class="link" data-entity-1="ent0002" data-entity-2="ent0003" data-link-type="dependency" data-source-line="61" id="lnk4"><path d="M907.62,177.9483 C907.62,202.6183 907.62,233.5183 907.62,258.1483" fill="none" id="PRE_LAUNCH-to-ARMED" style="stroke:#111827;stroke-width:1;"/><polygon fill="#111827" points="907.62,264.1483,911.62,255.1483,907.62,259.1483,903.62,255.1483,907.62,264.1483" style="stroke:#111827;stroke-width:1;"/><text fill="#111827" font-family="sans-serif" font-size="11" lengthAdjust="spacing" textLength="71.6235" x="909.8956" y="219.123">SODS = HIGH</text><text fill="#111827" font-family="sans-serif" font-size="11" lengthAdjust="spacing" textLength="74.1748" x="908.62" y="232.0781">(T-600 s typ.)</text></g><!--link ARMED to ASCENT--><g class="link" data-entity-1="ent0003" data-entity-2="ent0004" data-link-type="dependency" data-source-line="62" id="lnk5"><path d="M907.62,317.9483 C907.62,342.6183 907.62,373.5183 907.62,398.1483" fill="none" id="ARMED-to-ASCENT" style="stroke:#111827;stroke-width:1;"/><polygon fill="#111827" points="907.62,404.1483,911.62,395.1483,907.62,399.1483,903.62,395.1483,907.62,404.1483" style="stroke:#111827;stroke-width:1;"/><text fill="#111827" font-family="sans-serif" font-size="11" lengthAdjust="spacing" textLength="57.4009" x="908.62" y="359.123">LO = HIGH</text><text fill="#111827" font-family="sans-serif" font-size="11" lengthAdjust="spacing" textLength="45.8584" x="914.3912" y="372.0781">(T = 0 s)</text></g><!--link ASCENT to MG_VERIFY--><g class="link" data-entity-1="ent0004" data-entity-2="ent0005" data-link-type="dependency" data-source-line="75" id="lnk6"><path d="M907.62,457.9483 C907.62,482.6183 907.62,513.5183 907.62,538.1483" fill="none" id="ASCENT-to-MG_VERIFY" style="stroke:#111827;stroke-width:1;"/><polygon fill="#111827" points="907.62,544.1483,911.62,535.1483,907.62,539.1483,903.62,535.1483,907.62,544.1483" style="stroke:#111827;stroke-width:1;"/><text fill="#111827" font-family="sans-serif" font-size="11" lengthAdjust="spacing" textLength="63.4219" x="908.62" y="499.123">SOE = HIGH</text><text fill="#111827" font-family="sans-serif" font-size="11" lengthAdjust="spacing" textLength="52.8086" x="913.9266" y="512.0781">(T+~70 s)</text></g><!--link MG_VERIFY to WAIT_FFU--><g class="link" data-entity-1="ent0005" data-entity-2="ent0006" data-link-type="dependency" data-source-line="76" id="lnk7"><path d="M865.47,597.7783 C855.59,605.9783 846.3,615.9683 840.62,627.4883 C832.01,644.9783 831.133,661.1951 832.743,678.1551" fill="none" id="MG_VERIFY-to-WAIT_FFU" style="stroke:#111827;stroke-width:1;"/><polygon fill="#111827" points="833.31,684.1283,836.4416,674.7905,832.8375,679.1507,828.4774,675.5466,833.31,684.1283" style="stroke:#111827;stroke-width:1;"/><text fill="#111827" font-family="sans-serif" font-size="11" lengthAdjust="spacing" textLength="109.3394" x="841.62" y="639.123">|a_imu| &lt; IMU_g_thr</text><text fill="#111827" font-family="sans-serif" font-size="11" lengthAdjust="spacing" textLength="81.9038" x="855.3378" y="652.0781">f&#252;r &#8805; IMU_t_thr</text></g><!--link WAIT_FFU to HDRM_OPEN--><g class="link" data-entity-1="ent0006" data-entity-2="ent0007" data-link-type="dependency" data-source-line="93" id="lnk8"><path d="M834.52,737.8883 C831.94,759.3383 829.0141,783.7209 826.4441,805.1609" fill="none" id="WAIT_FFU-to-HDRM_OPEN" style="stroke:#111827;stroke-width:1;"/><polygon fill="#111827" points="825.73,811.1183,830.7727,802.6583,826.3251,806.1538,822.8296,801.7062,825.73,811.1183" style="stroke:#111827;stroke-width:1;"/><text fill="#111827" font-family="sans-serif" font-size="11" lengthAdjust="spacing" textLength="102.1582" x="831.57" y="779.123">t_seit_SOE &#8805; T_FFU</text></g><!--link HDRM_OPEN to ARM_DEPLOY--><g class="link" data-entity-1="ent0007" data-entity-2="ent0008" data-link-type="dependency" data-source-line="94" id="lnk9"><path d="M777.09,852.3983 C755.19,861.0583 730.34,874.5283 714.62,894.4883 C701.95,910.5783 697.73,927.5474 695.99,945.1574" fill="none" id="HDRM_OPEN-to-ARM_DEPLOY" style="stroke:#111827;stroke-width:1;"/><polygon fill="#111827" points="695.4,951.1283,700.2656,942.5652,695.8916,946.1525,692.3043,941.7786,695.4,951.1283" style="stroke:#111827;stroke-width:1;"/><text fill="#111827" font-family="sans-serif" font-size="11" lengthAdjust="spacing" textLength="80.2388" x="715.62" y="906.123">hdrm_open_sw</text><text fill="#111827" font-family="sans-serif" font-size="11" lengthAdjust="spacing" textLength="45.8745" x="732.8021" y="919.0781">&#8744; t &gt; 3 s</text></g><!--link ARM_DEPLOY to APPROACH_T1--><g class="link" data-entity-1="ent0008" data-entity-2="ent0010" data-link-type="dependency" data-source-line="95" id="lnk10"><path d="M629.12,1001.4583 C604.89,1010.6283 577.53,1022.0083 553.62,1034.4883 C512.72,1055.8383 473.9698,1082.3156 444.7698,1103.5856" fill="none" id="ARM_DEPLOY-to-APPROACH_T1" style="stroke:#111827;stroke-width:1;"/><polygon fill="#111827" points="439.92,1107.1183,449.5498,1105.0524,443.9615,1104.1744,444.8395,1098.5861,439.92,1107.1183" style="stroke:#111827;stroke-width:1;"/><text fill="#111827" font-family="sans-serif" font-size="11" lengthAdjust="spacing" textLength="84.02" x="569.4603" y="1046.123">&#8214;q - q_pre&#8214; &lt; &#949;</text><text fill="#111827" font-family="sans-serif" font-size="11" lengthAdjust="spacing" textLength="113.7007" x="554.62" y="1059.0781">&#8743; arm_state = READY</text></g><!--link APPROACH_T1 to DOCK_T1--><g class="link" data-entity-1="ent0010" data-entity-2="ent0011" data-link-type="dependency" data-source-line="111" id="lnk11"><path d="M397.16,1160.9483 C389.11,1185.6183 378.9398,1216.8138 370.9098,1241.4438" fill="none" id="APPROACH_T1-to-DOCK_T1" style="stroke:#111827;stroke-width:1;"/><polygon fill="#111827" points="369.05,1247.1483,375.6427,1239.8314,370.5998,1242.3945,368.0367,1237.3517,369.05,1247.1483" style="stroke:#111827;stroke-width:1;"/><text fill="#111827" font-family="sans-serif" font-size="11" lengthAdjust="spacing" textLength="114.8501" x="388.15" y="1202.123">F_load_T1 &gt; F_thresh</text><text fill="#111827" font-family="sans-serif" font-size="11" lengthAdjust="spacing" textLength="100.4341" x="395.358" y="1215.0781">&#8744; Trajektorie fertig</text></g><!--link DOCK_T1 to RETRACT_T1--><g class="link" data-entity-1="ent0011" data-entity-2="ent0012" data-link-type="dependency" data-source-line="112" id="lnk12"><path d="M360.06,1300.9583 C359.88,1310.2783 359.71,1320.8483 359.62,1330.4883 C359.45,1349.5383 359.4416,1365.0583 359.4916,1381.3483" fill="none" id="DOCK_T1-to-RETRACT_T1" style="stroke:#111827;stroke-width:1;"/><polygon fill="#111827" points="359.51,1387.3483,363.4824,1378.336,359.4947,1382.3483,355.4824,1378.3606,359.51,1387.3483" style="stroke:#111827;stroke-width:1;"/><text fill="#111827" font-family="sans-serif" font-size="11" lengthAdjust="spacing" textLength="65.0547" x="368.4457" y="1342.123">t_hold &#8805; 3 s</text><text fill="#111827" font-family="sans-serif" font-size="11" lengthAdjust="spacing" textLength="80.7061" x="360.62" y="1355.0781">(Messdaten ok)</text></g><!--link RETRACT_T1 to APPROACH_T2--><g class="link" data-entity-1="ent0012" data-entity-2="ent0014" data-link-type="dependency" data-source-line="115" id="lnk13"><path d="M337.83,1440.7483 C313.37,1469.6483 277.7956,1511.6879 253.3256,1540.6079" fill="none" id="RETRACT_T1-to-APPROACH_T2" style="stroke:#111827;stroke-width:1;"/><polygon fill="#111827" points="249.45,1545.1883,258.317,1540.9014,252.6797,1541.3713,252.2098,1535.734,249.45,1545.1883" style="stroke:#111827;stroke-width:1;"/><text fill="#111827" font-family="sans-serif" font-size="11" lengthAdjust="spacing" textLength="84.02" x="311.5304" y="1484.123">&#8214;q - q_pre&#8214; &lt; &#949;</text><text fill="#111827" font-family="sans-serif" font-size="11" lengthAdjust="spacing" textLength="86.4209" x="310.33" y="1497.0781">&#8743; F_load_T1 &#8776; 0</text></g><!--link APPROACH_T2 to DOCK_T2--><g class="link" data-entity-1="ent0014" data-entity-2="ent0015" data-link-type="dependency" data-source-line="131" id="lnk14"><path d="M219.54,1598.9483 C211.85,1623.6183 202.134,1654.7896 194.464,1679.4196" fill="none" id="APPROACH_T2-to-DOCK_T2" style="stroke:#111827;stroke-width:1;"/><polygon fill="#111827" points="192.68,1685.1483,199.175,1677.7446,194.1666,1680.3744,191.5368,1675.366,192.68,1685.1483" style="stroke:#111827;stroke-width:1;"/><text fill="#111827" font-family="sans-serif" font-size="11" lengthAdjust="spacing" textLength="114.8501" x="210.98" y="1640.123">F_load_T2 &gt; F_thresh</text><text fill="#111827" font-family="sans-serif" font-size="11" lengthAdjust="spacing" textLength="100.4341" x="218.188" y="1653.0781">&#8744; Trajektorie fertig</text></g><!--link DOCK_T2 to RETRACT_T2--><g class="link" data-entity-1="ent0015" data-entity-2="ent0016" data-link-type="dependency" data-source-line="132" id="lnk15"><path d="M184.62,1738.9483 C184.62,1763.6183 184.62,1794.5183 184.62,1819.1483" fill="none" id="DOCK_T2-to-RETRACT_T2" style="stroke:#111827;stroke-width:1;"/><polygon fill="#111827" points="184.62,1825.1483,188.62,1816.1483,184.62,1820.1483,180.62,1816.1483,184.62,1825.1483" style="stroke:#111827;stroke-width:1;"/><text fill="#111827" font-family="sans-serif" font-size="11" lengthAdjust="spacing" textLength="65.0547" x="193.4457" y="1780.123">t_hold &#8805; 3 s</text><text fill="#111827" font-family="sans-serif" font-size="11" lengthAdjust="spacing" textLength="80.7061" x="185.62" y="1793.0781">(Messdaten ok)</text></g><!--link RETRACT_T2 to ARM_STOW--><g class="link" data-entity-1="ent0016" data-entity-2="ent0017" data-link-type="dependency" data-source-line="135" id="lnk16"><path d="M180.96,1878.6683 C177.37,1903.7683 172.7882,1935.8485 169.1882,1961.0585" fill="none" id="RETRACT_T2-to-ARM_STOW" style="stroke:#111827;stroke-width:1;"/><polygon fill="#111827" points="168.34,1966.9983,173.5721,1958.6541,169.0468,1962.0485,165.6525,1957.5232,168.34,1966.9983" style="stroke:#111827;stroke-width:1;"/><text fill="#111827" font-family="sans-serif" font-size="11" lengthAdjust="spacing" textLength="84.02" x="178.0204" y="1922.123">&#8214;q - q_pre&#8214; &lt; &#949;</text><text fill="#111827" font-family="sans-serif" font-size="11" lengthAdjust="spacing" textLength="86.4209" x="176.82" y="1935.0781">&#8743; F_load_T2 &#8776; 0</text></g><!--link ARM_STOW to HDRM_CLOSE--><g class="link" data-entity-1="ent0017" data-entity-2="ent0018" data-link-type="dependency" data-source-line="156" id="lnk17"><path d="M164.62,2020.9483 C164.62,2045.6183 164.62,2076.5183 164.62,2101.1483" fill="none" id="ARM_STOW-to-HDRM_CLOSE" style="stroke:#111827;stroke-width:1;"/><polygon fill="#111827" points="164.62,2107.1483,168.62,2098.1483,164.62,2102.1483,160.62,2098.1483,164.62,2107.1483" style="stroke:#111827;stroke-width:1;"/><text fill="#111827" font-family="sans-serif" font-size="11" lengthAdjust="spacing" textLength="91.4214" x="165.62" y="2062.123">&#8214;q - q_stow&#8214; &lt; &#949;</text><text fill="#111827" font-family="sans-serif" font-size="11" lengthAdjust="spacing" textLength="53.7485" x="184.4564" y="2075.0781">&#8743; arm idle</text></g><!--link HDRM_CLOSE to NET_DEPLOY--><g class="link" data-entity-1="ent0018" data-entity-2="ent0019" data-link-type="dependency" data-source-line="157" id="lnk18"><path d="M106.08,2144.3883 C78.92,2152.0083 49.06,2165.7383 32.62,2190.4883 C6,2230.5583 56.8565,2262.115 104.7065,2282.415" fill="none" id="HDRM_CLOSE-to-NET_DEPLOY" style="stroke:#111827;stroke-width:1;"/><polygon fill="#111827" points="110.23,2284.7583,103.507,2277.561,105.6271,2282.8055,100.3826,2284.9257,110.23,2284.7583" style="stroke:#111827;stroke-width:1;"/><text fill="#111827" font-family="sans-serif" font-size="11" lengthAdjust="spacing" textLength="87.8335" x="33.62" y="2202.123">hdrm_closed_sw</text><text fill="#111827" font-family="sans-serif" font-size="11" lengthAdjust="spacing" textLength="45.8745" x="54.5995" y="2215.0781">&#8744; t &gt; 3 s</text></g><!--link NET_DEPLOY to SAFE--><g class="link" data-entity-1="ent0019" data-entity-2="ent0020" data-link-type="dependency" data-source-line="158" id="lnk19"><path d="M176.62,2332.8583 C185.62,2356.9083 200.82,2393.2383 219.62,2421.6583 C226.48,2432.0283 231.17,2437.9771 239.51,2446.8471" fill="none" id="NET_DEPLOY-to-SAFE" style="stroke:#111827;stroke-width:1;"/><polygon fill="#111827" points="243.62,2451.2183,240.3691,2441.9214,240.195,2447.5756,234.5408,2447.4015,243.62,2451.2183" style="stroke:#111827;stroke-width:1;"/><text fill="#111827" font-family="sans-serif" font-size="11" lengthAdjust="spacing" textLength="90.8628" x="220.62" y="2406.293">net_deployed_sw</text><text fill="#111827" font-family="sans-serif" font-size="11" lengthAdjust="spacing" textLength="45.8745" x="243.1141" y="2419.2481">&#8744; t &gt; 2 s</text></g><!--link SAFE to *end*--><g class="link" data-entity-1="ent0020" data-entity-2="ent0020" data-link-type="dependency" data-source-line="159" id="lnk21"><path d="M223.76,2505.1183 C200.77,2520.0583 174.46,2540.8083 157.62,2565.6583 C137.43,2595.4883 131.758,2633.2043 129.918,2652.9043" fill="none" id="SAFE-to-*end*" style="stroke:#111827;stroke-width:1;"/><polygon fill="#111827" points="129.36,2658.8783,134.1796,2650.2893,129.825,2653.8999,126.2143,2649.5453,129.36,2658.8783" style="stroke:#111827;stroke-width:1;"/></g><!--link MG_VERIFY to ABORT--><g class="link" data-entity-1="ent0005" data-entity-2="ent0021" data-link-type="dependency" data-source-line="168" id="lnk22"><path d="M934.23,597.8183 C942.06,606.6083 950.02,616.9083 955.62,627.4883 C973.38,661.0283 977.62,672.0383 977.62,709.9883 C977.62,709.9883 977.62,709.9883 977.62,2134.9883 C977.62,2294.5783 787.82,2196.4083 636.62,2247.4883 C610.38,2256.3483 587.6026,2265.9145 564.0826,2276.7145" fill="none" id="MG_VERIFY-to-ABORT" style="stroke:#DC2626;stroke-width:1;stroke-dasharray:7,7;"/><polygon fill="#DC2626" points="558.63,2279.2183,568.4781,2279.0977,563.1739,2277.1318,565.1398,2271.8276,558.63,2279.2183" style="stroke:#DC2626;stroke-width:1;"/><text fill="#111827" font-family="sans-serif" font-size="11" lengthAdjust="spacing" textLength="97.4692" x="978.62" y="1412.123">Watchdog timeout</text><text fill="#111827" font-family="sans-serif" font-size="11" lengthAdjust="spacing" textLength="92.2861" x="981.2116" y="1425.0781">&#8744; IMU-Plausi-Fail</text></g><!--link HDRM_OPEN to ABORT--><g class="link" data-entity-1="ent0007" data-entity-2="ent0021" data-link-type="dependency" data-source-line="169" id="lnk23"><path d="M822.62,864.9283 C822.62,892.6683 822.62,937.9383 822.62,976.9883 C822.62,976.9883 822.62,976.9883 822.62,2134.9883 C822.62,2202.6683 753.91,2184.8483 694.62,2217.4883 C653.12,2240.3383 610.0957,2260.3306 572.6157,2276.7506" fill="none" id="HDRM_OPEN-to-ABORT" style="stroke:#DC2626;stroke-width:1;stroke-dasharray:7,7;"/><polygon fill="#DC2626" points="567.12,2279.1583,576.9687,2279.2106,571.6998,2277.1519,573.7585,2271.8829,567.12,2279.1583" style="stroke:#DC2626;stroke-width:1;"/><text fill="#111827" font-family="sans-serif" font-size="11" lengthAdjust="spacing" textLength="100.1978" x="823.62" y="1570.123">hdrm_open_sw fail</text><text fill="#111827" font-family="sans-serif" font-size="11" lengthAdjust="spacing" textLength="98.9033" x="824.2672" y="1583.0781">&#8744; Power-Brownout</text></g><!--link ARM_DEPLOY to ABORT--><g class="link" data-entity-1="ent0008" data-entity-2="ent0021" data-link-type="dependency" data-source-line="170" id="lnk24"><path d="M694.62,1004.8683 C694.62,1035.4783 694.62,1087.9383 694.62,1132.9883 C694.62,1132.9883 694.62,1132.9883 694.62,2134.9883 C694.62,2203.9583 629.6016,2249.4453 574.7316,2276.4953" fill="none" id="ARM_DEPLOY-to-ABORT" style="stroke:#DC2626;stroke-width:1;stroke-dasharray:7,7;"/><polygon fill="#DC2626" points="569.35,2279.1483,579.1911,2278.7565,573.8347,2276.9374,575.6537,2271.581,569.35,2279.1483" style="stroke:#DC2626;stroke-width:1;"/><text fill="#111827" font-family="sans-serif" font-size="11" lengthAdjust="spacing" textLength="103.4634" x="695.62" y="1646.623">arm_state = ERROR</text></g><!--link APPROACH_T1 to ABORT--><g class="link" data-entity-1="ent0010" data-entity-2="ent0021" data-link-type="dependency" data-source-line="171" id="lnk25"><path d="M456.33,1153.9683 C475.33,1162.9083 496.07,1175.0483 511.62,1190.4883 C541.12,1219.7583 555.62,1231.4283 555.62,1272.9883 C555.62,1272.9883 555.62,1272.9883 555.62,1642.9883 C555.62,1735.8983 576.62,1758.0683 576.62,1850.9883 C576.62,1850.9883 576.62,1850.9883 576.62,2134.9883 C576.62,2189.5483 548.4113,2241.855 527.3713,2274.065" fill="none" id="APPROACH_T1-to-ABORT" style="stroke:#DC2626;stroke-width:1;stroke-dasharray:7,7;"/><polygon fill="#DC2626" points="524.09,2279.0883,532.3608,2273.7409,526.8244,2274.9022,525.6631,2269.3659,524.09,2279.0883" style="stroke:#DC2626;stroke-width:1;"/><text fill="#111827" font-family="sans-serif" font-size="11" lengthAdjust="spacing" textLength="84.5249" x="565.33" y="1710.123">F_load &gt; F_max</text><text fill="#111827" font-family="sans-serif" font-size="11" lengthAdjust="spacing" textLength="60.7256" x="577.2297" y="1723.0781">&#8744; arm error</text></g><!--link DOCK_T1 to ABORT--><g class="link" data-entity-1="ent0011" data-entity-2="ent0021" data-link-type="dependency" data-source-line="172" id="lnk26"><path d="M413.31,1300.8283 C425.39,1308.8783 437.15,1318.7783 445.62,1330.4883 C467.87,1361.2283 467.62,1375.0383 467.62,1412.9883 C467.62,1412.9883 467.62,1412.9883 467.62,1712.9883 C467.62,1749.6783 461.62,1758.9183 464.62,1795.4883 C468.86,1847.1183 477.95,1858.9983 483.62,1910.4883 C498.88,2048.9283 503.639,2209.9297 505.019,2273.1397" fill="none" id="DOCK_T1-to-ABORT" style="stroke:#DC2626;stroke-width:1;stroke-dasharray:7,7;"/><polygon fill="#DC2626" points="505.15,2279.1383,508.9526,2270.0531,505.0409,2274.1395,500.9545,2270.2277,505.15,2279.1383" style="stroke:#DC2626;stroke-width:1;"/><text fill="#111827" font-family="sans-serif" font-size="11" lengthAdjust="spacing" textLength="84.5249" x="465.62" y="1786.623">F_load &gt; F_max</text></g><!--link APPROACH_T2 to ABORT--><g class="link" data-entity-1="ent0014" data-entity-2="ent0021" data-link-type="dependency" data-source-line="173" id="lnk27"><path d="M278.41,1588.6683 C298.49,1597.3383 319.98,1610.1583 333.62,1628.4883 C417.18,1740.6883 359.86,1801.7283 393.62,1937.4883 C425.99,2067.6183 474.6471,2214.3281 494.8871,2273.8081" fill="none" id="APPROACH_T2-to-ABORT" style="stroke:#DC2626;stroke-width:1;stroke-dasharray:7,7;"/><polygon fill="#DC2626" points="496.82,2279.4883,497.7075,2269.6795,495.2093,2274.7548,490.134,2272.2566,496.82,2279.4883" style="stroke:#DC2626;stroke-width:1;"/><text fill="#111827" font-family="sans-serif" font-size="11" lengthAdjust="spacing" textLength="84.5249" x="394.62" y="1922.123">F_load &gt; F_max</text><text fill="#111827" font-family="sans-serif" font-size="11" lengthAdjust="spacing" textLength="60.7256" x="406.5197" y="1935.0781">&#8744; arm error</text></g><!--link DOCK_T2 to ABORT--><g class="link" data-entity-1="ent0015" data-entity-2="ent0021" data-link-type="dependency" data-source-line="174" id="lnk28"><path d="M240.24,1738.7083 C252.72,1746.7183 264.85,1756.6283 273.62,1768.4883 C296.19,1798.9983 295.62,1813.0383 295.62,1850.9883 C295.62,1850.9883 295.62,1850.9883 295.62,2064.9883 C295.62,2163.4183 391.7631,2237.7587 453.6531,2275.9287" fill="none" id="DOCK_T2-to-ABORT" style="stroke:#DC2626;stroke-width:1;stroke-dasharray:7,7;"/><polygon fill="#DC2626" points="458.76,2279.0783,453.1994,2270.9493,454.5043,2276.4536,449,2277.7585,458.76,2279.0783" style="stroke:#DC2626;stroke-width:1;"/><text fill="#111827" font-family="sans-serif" font-size="11" lengthAdjust="spacing" textLength="84.5249" x="296.62" y="1998.623">F_load &gt; F_max</text></g><!--link HDRM_CLOSE to ABORT--><g class="link" data-entity-1="ent0018" data-entity-2="ent0021" data-link-type="dependency" data-source-line="175" id="lnk29"><path d="M155.75,2160.6983 C151.36,2178.4583 149.31,2201.6483 161.62,2217.4883 C168.98,2226.9483 288.472,2255.8865 385.752,2278.2065" fill="none" id="HDRM_CLOSE-to-ABORT" style="stroke:#DC2626;stroke-width:1;stroke-dasharray:7,7;"/><polygon fill="#DC2626" points="391.6,2279.5483,383.7225,2273.6369,386.7266,2278.4301,381.9334,2281.4343,391.6,2279.5483" style="stroke:#DC2626;stroke-width:1;"/><text fill="#111827" font-family="sans-serif" font-size="11" lengthAdjust="spacing" textLength="107.7925" x="162.62" y="2208.623">hdrm_closed_sw fail</text></g><!--link ABORT to SAFE--><g class="link" data-entity-1="ent0021" data-entity-2="ent0020" data-link-type="dependency" data-source-line="176" id="lnk30"><path d="M469.93,2332.9083 C425.64,2364.9683 355.4,2415.7998 311.13,2447.8498" fill="none" id="ABORT-to-SAFE" style="stroke:#DC2626;stroke-width:1;"/><polygon fill="#DC2626" points="306.27,2451.3683,315.9057,2449.3305,310.32,2448.4362,311.2144,2442.8505,306.27,2451.3683" style="stroke:#DC2626;stroke-width:1;"/><text fill="#111827" font-family="sans-serif" font-size="11" lengthAdjust="spacing" textLength="116.644" x="382.08" y="2412.793">Safing-Sequenz fertig</text></g><?plantuml-src hLXBRnl94RxFhoZG1vEoHYP7Azaho0OeQYXfBOe4ILcnrmkYIJQ7OyrCqprDqL8s2v-2tMiGv1GWG90WEUQocujFg_l-2FsILFMyALcn8H4GH7OzkhhggqVtGtXsXu_n4A1LtzixiE7gmv-XQ__kk0Vs-ncNhiy31Jt558SM6qtTW1Fp7X-T2dDNZ4xTm5c5zem7vg4GirLekICf7CdEN7LkDdaGAYxXXvfLXT1uIABss5KkbppOebzWmkjvg2x_4Omvn9yjA8LwmwDwouRjxTcKXVpvyn8yWjVSzNW09KtP0iNVgrAifaDSWTbaSeWSf2L4usPCCj_SyT1Ic0SAAUKUMiI5EaURIRb4rQjQnqsVxUs9vpfJXJpudR-VHLz2Dk7HDpOK4gcLs8hBlmwvTF0u3azFqnDpEU9Wci-XpwJ35PrmXu_HTVF0IUn_8T1NJ9iOonq9z873WelKSfJmUA9FJA0lvsgQR7t8piLSmL1oLyLkzFX4WH8WwGWmTYKVALS49U1kS2fyYgqEHHIPBiSWo3GkBtlG43egMuW5D214KIXrF3Jok7LOWl9RFXo65GpBD-oCuRyzoMRJC_SYLj0EF8HBPCfKgLcuzVZnOh5Ocv66kU-jZOJ_EFdn6FzYkSRXGUgxX0m-SnoN3pGm1dw4nBKPKKmLdZaeUgS4C9IhqBMVdmIuuKFuX7-9QAOVS3mnP1uFKSCvUiJ9qOmKen1EsLWiY3nXNiXp52dcmRWXP82PLBFo8jgYtni0JH6e8-QdALJQvzuPL-w8bM9gpxr8gRLrNAmh9TtXNF6KMglXyewG28B-r1sT1ZmCeRQsGQjiTEh4TdX2midKLJpbZjReyy3Qs5pdGr8lfLXa17XGgzMUMayIIiualMsw68iax7zOycKnooy_OhP1Fg5lTctgfvozSUh7rcqEdrXFgyiSIUuNJbRWq1KXEU4cM_-ABND4fIBYg3xzkZQqbZdY4g8vnYDhqzgyxl6Cwq7JjYtR8izyk_AThYgThZquh1yVDVQDk-O1Pc17ShEf3tvNPP7VC-kISclabh0yLk7N_yB1sEEhqEFUC5IAXofSOchlze3DGoDMMk-sxDrKN_GBkMgaQfSfvWd7GMXWdKk9zLCbiDO11SJ8QoSNHap9HizW_s1l_qrGxfkRLUnSWE1QgyIQz4VBz1hsKHzb3jiv2VoA4fNxYCHzHY4sDiEqaPhViyXhEqA4QXLUkaF9T17Bw5ZwjUUqKuCa1AszmKkxUz1ybLUQBQBSkWviwnXcylBZH1M8-Jd1IFQA7LjGqhPppdtqmnFjt8o3-4_g1_r1itbCyVkU3Ln__ZriqyO3Pw2cyaqmkVmeuUgdV-erHMlt4PwiDznFYD9Zn6N5I1VG3L-HB_kucmGs9A_agMNyPzQ7YxcS87N197RhIXAd_TrkQz3ks4Uftcm55M-GOioDESFqA92yorz2jPHqWrsxSzX-bQhABQ6kJTA5VLAg8c4gi3LT_V5F20HkijbC2koYHdQ2EExPvXH9DGXnaXaG02XqcjF8iyHvcsn3-uobFn3O1mRXuarmzUE_GS5pMCVHCy-dvJgTRhlUs1_qQoXtzU4lxt3mU3T0-_0xWkUtdqd-Ny1GONJuPpWHr7TVBVMZU0GsNv-VUlCmcUzgXJwanKinPyfI0XPgyPhkJB67SsObBeObOtjFoCjwvFPmvBv6xqlsbbEjSpdqQqQgUxVTU57KcwoWpgUaSvzv29m2uOGx_89xE1ezWWRpmqnTr-vtwur-KMDk4PL-JKgx_8pBa9jarjeoIrEZecei7O8YbDYWiT0SU8ADwUTp_8xvoyDf5E3yQITSAjV9sPy0gx2d6ao5DzQOGcHWLMdXd3DcD66BqmhrrHnx4IlMhLZ9ZBpwwKSwr6SWnVh_IB5If5Wt8iMw4IcMReVLJqF5MeQAjGmLwnfK8gMr6x1YVHvMh9km4ccrRWMBzIcmM3cmM4MmM5y25kiwMAml0ukL5gHUlttoMKYnCgJSjHdrs0GnSq-pGdA6P7erSgVgrNHRhqiVek4g8L1fDl4MEt6TUJn2v3jGux3TipEDkJNIgTjRYu-cB7137rjEWHwEffxBB_-cOExJpedY8xkVDQHOSMwD56z4i1hZ84sNwt29xewcNE8jF0oukaZKzkhDdANw5wdItQtFFUvpHGXQO7lYCg4duwNkbwbRSeqjEKmAYr29nRLk0ouEmldJatp1PjtaHfu8-VXQcyinafmsBRbAuma7OpxpnFcIe8M2EKuIn9l5VO2oJdSMipDXOtsbvb9oTFYGIV8IlELZxkld7nQCxmcvE-rkFtkLCQBV6Bo1dO0MlJvRrH61Ypd6C0Z0l_p5yT2mrPJ_2D40hg-dhNb8Wn0FLkbYWG6EmfuEmzaeIhxxDhx1hOvPEENZxwWYn3fFc1fDny81XLEScAie03YHcXqFDt7nKkjwXG7dLdNvMGScA1hfwuW5b-OEtgO3tACmzzogBZ_esDrkksla6_Ajeb4rqyNMP-yZCmZ966wSAFEz-0lK6FaIV-VjhI_UFfU1dn67D1rr968OmTAc91L_edJRYgkssUFlvZouI7gI4T3BN_Ie92RHJjYeLbRsefSax6CkNMzNLg3iSEh3M8gBwLJPGe6h3t-_XhfuUGacqI8E2f9k0QREMoWVppmtm2uNKPUH6gqsXHnnKpzxOfMcjqUifdWXANWpKR5FDnC9ZRaIayaMwEhJ7-pNkxk3nd7VuC4OwEZtKNeAZGWU5vvNRtb8lTEsEcn3ePJmIIa5MOVjHVkeUR2dIs3EZBBhHm-ip0kXGmzL79rJsLfPGQ7qNeIVPr2ZDuZuKpuX9rxG8szq4OIX6sPN9t9rUlFLmjMrwWOuiN3XURutcYveNajaL2gpKQs27szPrgEU-Pfsf8Te2NcvPC22UAyDE4eCnRCgTgfCMvvYbILOf1DY98d8I8-uiLRD92DG7Re-RaapdyOZoSJZM2opddcbO2KwbjA-elsOe8i4o5kFq9laph8jBnPe5ATdrUZPdg690TvCqm68DFpsCvHdcDsLE1I__WSGJXRuFcxQ4JIi2W_p9hYe63hQXIVAA9hPanfgGE_FgHcb2qClMiYzDHFNvKSQhwCAWGkZSnRe7gPpynb8eIZxGnn5S8Rnq3rf-lmF?></g></svg>